<?xml version="1.0" encoding="utf-8"?>
<!-- Generator: Adobe Illustrator 19.0.0, SVG Export Plug-In . SVG Version: 6.00 Build 0)  -->
<svg version="1.1" id="Layer_1" xmlns="http://www.w3.org/2000/svg" xmlns:xlink="http://www.w3.org/1999/xlink" x="0px" y="0px"
	 viewBox="16 -16 64 64" style="enable-background:new 16 -16 64 64;" xml:space="preserve">
<style type="text/css">
	.st0{fill:#88C057;}
</style>
<path class="st0" d="M55.6,37.9V23.3c0-2-1.6-3.7-3.7-3.7c-2,0-3.7,1.6-3.7,3.7v7.3c-4.5-3.3-7.3-8.7-7.3-14.7
	c0-8.9,6.3-16.3,14.7-18v-7.4c-12.4,1.8-22,12.5-22,25.4c0,7.2,3,13.7,7.7,18.3h-4.1c-2,0-3.7,1.6-3.7,3.7s1.6,3.7,3.7,3.7h14.7
	C54,41.6,55.6,40,55.6,37.9z"/>
</svg>
